<svg width="185" height="32" viewBox="0 0 185 32" fill="none" xmlns="http://www.w3.org/2000/svg">
<g clip-path="url(#clip0_49_1648)">
<path d="M48.099 13.7631L51.8704 17.9499L50.6223 19.016L47.4096 15.4123C46.7067 16.7699 45.6974 18.0137 44.3862 19.1617L43.1561 18.0775C45.3955 16.1048 46.6076 13.795 46.8329 11.1116V9.70388H48.5766V10.6105C48.5586 11.7084 48.4009 12.7608 48.099 13.7631ZM55.3714 23.1207H53.6277V14.5558H50.2708V13.0387H53.6277V8.14124H55.3714V23.1253V23.1207Z" fill="#5B5C54"/>
<path d="M63.0944 17.4989V16.1914H56.9709V14.6879H71.0066V16.1914H64.8832V17.4989H67.9381V21.2984H61.8012V22.1868H68.3076V23.6902H60.0259V19.8269H66.1628V18.9841H59.9268V17.4989H63.0899H63.0944ZM60.0755 11.2073C60.0755 10.3326 60.4449 9.60821 61.2109 9.02507C61.9454 8.46015 62.8736 8.16858 63.991 8.16858C65.1085 8.16858 66.0367 8.46015 66.8026 9.02507C67.5551 9.60821 67.9381 10.3326 67.9381 11.2073C67.9381 12.082 67.5551 12.8064 66.8026 13.3713C66.0367 13.9545 65.1085 14.246 63.991 14.246C62.8736 14.246 61.9454 13.9545 61.2109 13.3713C60.4449 12.8064 60.0755 12.0775 60.0755 11.2073ZM61.8462 11.2073C61.8462 11.6447 62.04 12 62.4365 12.2734C62.8195 12.5649 63.3332 12.7107 63.9865 12.7107C64.6399 12.7107 65.1715 12.5649 65.5681 12.2734C65.951 12 66.1583 11.6447 66.1583 11.2073C66.1583 10.7699 65.951 10.4146 65.5681 10.123C65.167 9.84967 64.6399 9.70389 63.9865 9.70389C63.3332 9.70389 62.8195 9.84967 62.4365 10.123C62.0355 10.4146 61.8462 10.7836 61.8462 11.2073Z" fill="#5B5C54"/>
<path d="M76.2964 13.7631L80.1309 17.7723L78.8827 18.8383L75.6205 15.3805C74.9176 16.7381 73.9083 18 72.5836 19.1618L71.3535 18.0775C73.5929 16.1048 74.805 13.795 75.0303 11.1117V9.70392H76.774V10.6105C76.756 11.7085 76.5983 12.7609 76.2964 13.7631ZM83.348 23.1208H81.6043V8.13672H83.348V23.1208Z" fill="#5B5C54"/>
<path d="M96.0725 13.9727H92.941V15.5262H98.9833V17.0615H84.9476V15.5262H91.1657V13.9727H87.9846V8.59229H89.7734V12.4556H96.0725V13.9727ZM88.0476 20.7791C88.0476 19.8725 88.4171 19.1162 89.1651 18.5331C89.8995 17.9499 90.8458 17.6583 91.9632 17.6583C93.0806 17.6583 94.0269 17.9499 94.7929 18.5331C95.5273 19.1162 95.9103 19.8725 95.9103 20.7791C95.9103 21.6857 95.5273 22.4419 94.7929 23.0251C94.0269 23.6082 93.0851 23.8998 91.9632 23.8998C90.8412 23.8998 89.8995 23.6082 89.1651 23.0251C88.4126 22.4419 88.0476 21.6993 88.0476 20.7791ZM89.8229 20.7791C89.8229 21.262 90.0167 21.6356 90.3997 21.9271C90.7827 22.2187 91.2963 22.3645 91.9677 22.3645C92.6391 22.3645 93.1663 22.2187 93.5673 21.9271C93.9503 21.6356 94.144 21.2665 94.144 20.7791C94.144 20.2916 93.9503 19.9226 93.5673 19.631C93.1663 19.3394 92.6391 19.1937 91.9677 19.1937C91.2963 19.1937 90.7872 19.3394 90.3997 19.631C90.0122 19.9226 89.8229 20.3098 89.8229 20.7791Z" fill="#5B5C54"/>
<path d="M113.37 18.287H107.233V23.4442H105.445V18.287H99.3392V16.7517H113.375V18.287H113.37ZM107.278 9.53078C107.247 9.9818 107.166 10.4055 107.04 10.8064L111.582 14.2825L110.496 15.4943L106.323 12.3098C105.494 13.5718 104.115 14.7198 102.232 15.7221L101.115 14.5103C103.994 12.8611 105.445 11.18 105.512 9.467V8.70618H107.288V9.53078H107.278Z" fill="#5B5C54"/>
<path d="M118.692 12.6333L122.287 16.2051L121.057 17.2711L118.002 14.1504C117.331 15.3303 116.34 16.4465 115.06 17.4944L113.844 16.4283C116.083 14.5376 117.25 12.5012 117.376 10.319V9.12077H119.102V10.0092C119.102 10.9158 118.976 11.7859 118.687 12.6287L118.692 12.6333ZM125.518 23.5262H117.286V18.1595H119.03V22.0046H125.518V23.5217V23.5262ZM127.803 13.7631H125.342V19.2256H123.599V8.13672H125.342V12.1595H127.803V13.7586V13.7631Z" fill="#5B5C54"/>
<path d="M133.223 12.2278L136.882 15.4943L135.715 16.5467L132.583 13.6857C131.912 14.8656 130.903 15.9818 129.56 17.0297L128.33 15.9955C130.569 14.1868 131.736 12.2278 131.862 10.1276V8.96588H133.588V9.84059C133.588 10.6652 133.475 11.4579 133.219 12.2324L133.223 12.2278ZM140.049 23.8497H138.306V19.4533H131.592V17.9363H140.049V23.8497ZM138.45 17.4807V8.13672H140.194V17.4807H138.45Z" fill="#5B5C54"/>
<path d="M147.912 18.3052V16.9157H141.789V15.3804H155.824V16.9157H149.701V18.3052H152.769V23.6082H144.807V18.3052H147.907H147.912ZM153.382 14.6515H144.208V13.1344H145.902V12.6014C145.902 12.1822 145.871 11.8405 145.821 11.6173C145.758 11.4077 145.677 11.1663 145.551 10.8884L147.119 10.4055C147.358 10.7289 147.52 11.0661 147.583 11.4214C147.633 11.795 147.664 12.1822 147.664 12.5831V13.1344H149.935V10.2414H144.339V8.72437H153.26V10.2414H151.679V13.1344H153.391V14.6515H153.382ZM151.016 22.1048V19.8086H146.587V22.1048H151.016Z" fill="#5B5C54"/>
<path d="M156.18 15.4261H161.456V12.3236H163.263V15.4261H170.216V16.9614H156.18V15.4261ZM167.287 8.78369C167.287 10.0274 167.237 11.1117 167.161 12.0502C167.066 13.0024 166.954 13.8452 166.791 14.5878H165.066C165.178 13.7495 165.273 12.9386 165.368 12.1322C165.449 11.3577 165.494 10.7427 165.494 10.3053H158.861V8.78825H167.287V8.78369ZM159.294 20.729C159.294 19.8908 159.645 19.1436 160.38 18.4967C161.082 17.868 162.024 17.5445 163.209 17.5445C164.394 17.5445 165.336 17.868 166.07 18.4967C166.791 19.1436 167.156 19.8862 167.156 20.729C167.156 21.5718 166.787 22.3281 166.07 22.9614C165.336 23.6083 164.376 23.9135 163.209 23.9135C162.042 23.9135 161.101 23.6083 160.38 22.9614C159.645 22.3327 159.294 21.5855 159.294 20.729ZM161.069 20.729C161.069 21.1664 161.263 21.5536 161.646 21.8771C162.015 22.2324 162.542 22.3964 163.214 22.3964C163.885 22.3964 164.43 22.237 164.813 21.8771C165.196 21.5536 165.39 21.1664 165.39 20.729C165.39 20.2917 165.196 19.9226 164.813 19.5673C164.43 19.2438 163.885 19.0662 163.214 19.0662C162.542 19.0662 162.015 19.2438 161.646 19.5673C161.263 19.9226 161.069 20.3099 161.069 20.729Z" fill="#5B5C54"/>
<path d="M175.506 13.7631L179.277 17.9499L178.029 19.016L174.816 15.4123C174.113 16.77 173.104 18.0137 171.793 19.1618L170.563 18.0775C172.802 16.1048 174.014 13.795 174.239 11.1117V9.70392H175.983V10.6105C175.965 11.7085 175.808 12.7609 175.506 13.7631ZM184.711 15.2802H182.183V23.1208H180.44V8.13672H182.183V13.6811H184.711V15.2802Z" fill="#5B5C54"/>
<path d="M17.2437 17.6858C17.2437 19.1254 15.581 20.2917 13.5264 20.2917C11.4717 20.2917 9.80908 19.1254 9.80908 17.6858C9.80908 16.2461 11.4762 15.0798 13.5264 15.0798C15.5765 15.0798 17.2437 16.2461 17.2437 17.6858Z" fill="#C2002F"/>
<path d="M16.5588 14.77C16.5588 14.77 22.2046 14.4101 22.4614 17.868C22.4614 17.868 22.4524 24.4967 8.63757 25.6538L16.338 32.0001C16.338 32.0001 29.1931 26.4283 26.1832 18.1778C26.1832 18.1778 24.6332 14.0958 16.5588 14.77Z" fill="#004896"/>
<path d="M10.5256 20.8065C10.5256 20.8065 2.92428 20.9614 4.14986 16.6835C4.14986 16.6835 4.91585 10.8019 16.0362 9.9272C16.0362 9.9272 23.7367 8.84292 30.4188 11.4762L40.0072 1.67663C40.0072 1.67663 26.1383 -2.76073 10.832 2.80647C10.832 2.80647 0.680376 5.84975 0.0180204 13.8953C0.0180204 13.8953 -0.901167 21.3258 10.5256 20.8065Z" fill="#26959C"/>
</g>
<defs>
<clipPath id="clip0_49_1648">
<rect width="185" height="32" fill="white"/>
</clipPath>
</defs>
</svg>
