<svg width="185" height="48" viewBox="0 0 185 48" fill="none" xmlns="http://www.w3.org/2000/svg">
<g clip-path="url(#clip0_69_313)">
<path d="M26.1802 6.27997C26.2702 6.41997 26.3902 6.53997 26.4002 6.67997C26.5302 7.08997 26.9102 7.33997 26.9602 7.74997C26.9802 7.88997 27.1602 7.94997 27.2502 8.00997C27.3502 8.13997 27.2802 8.28997 27.4802 8.47997C27.5702 8.53997 27.5002 8.68997 27.5202 8.82997C27.6102 8.88997 27.7102 8.94997 27.8002 9.00997C28.6502 10.34 28.7302 11.88 27.7502 13.31C27.5902 13.47 27.4402 13.69 27.3802 13.91C27.3002 13.99 27.1302 14.07 27.0502 14.15C27.0702 14.29 27.1602 14.35 27.2602 14.48C26.8302 14.59 26.7802 14.95 26.4602 15.19C26.3702 15.19 26.2002 15.21 26.1102 15.22C25.8702 15.46 25.6202 15.55 25.3702 15.71C25.2902 15.79 25.3102 16 25.3202 16.07C24.9102 16.39 24.3202 16.59 23.7002 16.57C23.6202 16.57 23.5502 16.8 23.4702 16.8C23.0302 16.84 22.5102 16.82 22.0702 16.86C21.8902 16.81 21.7902 16.68 21.6002 16.62C21.4302 16.64 21.2502 16.65 21.0702 16.6C20.7902 16.41 20.4302 16.38 20.1502 16.26C19.9702 16.21 19.6402 16.38 19.4502 16.26C18.8602 15.75 18.2802 15.24 17.9602 14.71C17.7502 14.38 17.3802 14.27 17.2602 13.93C17.2402 13.79 17.3102 13.57 17.1302 13.52C16.7702 13.41 16.9202 13.19 16.9002 12.98C16.7902 12.78 16.7702 12.64 16.5802 12.45C16.4702 12.25 16.6102 11.95 16.5002 11.68C16.5002 11.61 16.5702 11.53 16.5602 11.46C16.4302 11.05 16.6402 10.61 16.6002 10.26C16.5802 10.05 16.6302 9.75997 16.7002 9.54997C16.9202 9.10997 17.1202 8.58997 17.5102 8.12997C17.5102 8.05997 17.4902 7.91997 17.4802 7.84997C17.5602 7.76997 17.6502 7.75997 17.7202 7.67997C17.8602 7.31997 18.0002 7.01997 18.2302 6.71997C18.5402 6.33997 19.0302 6.00997 19.4302 5.61997C19.6702 5.38997 20.0002 5.20997 20.2202 4.83997C20.3002 4.75997 20.5802 4.87997 20.6602 4.79997C20.9002 4.56997 21.2502 4.59997 21.5002 4.43997C21.7502 4.27997 21.7002 4.62997 21.9502 4.53997C22.1202 4.51997 22.2002 4.44997 22.3702 4.35997C22.6202 4.26997 22.9102 4.44997 23.1802 4.48997C23.4402 4.46997 23.7102 4.50997 23.9902 4.69997C24.3702 4.94997 25.2402 4.85997 25.3802 5.34997C25.5902 5.67997 25.9702 5.92997 26.1802 6.25997V6.27997Z" fill="white"/>
<path d="M40.9002 11.8C40.9002 11.58 40.9002 11.45 40.8102 11.22C40.7902 11 40.9602 10.76 40.8802 10.46C40.8302 10.38 40.7202 10.29 40.7302 10.22C40.8802 9.76 40.8902 9.34 40.8502 8.85C40.8102 8.7 40.7602 8.62 40.7102 8.54C40.7202 8.47 40.7502 8.34 40.7702 8.2C40.7802 7.78 40.6502 7.47 40.5202 7.09C40.4802 6.94 40.3702 6.85 40.3502 6.63C40.3002 6.55 40.1902 6.45 40.2002 6.38C40.3102 5.77 40.0202 5.29 39.9302 4.71C39.7902 4.05 39.1702 3.63 38.9702 2.96C38.9802 2.89 39.1902 2.92 39.2502 2.93C39.7402 3.39 40.2902 3.93 40.4202 4.59C40.5102 4.82 40.4702 5.02 40.5702 5.18C40.9902 5.69 41.0602 6.34 41.1402 6.99C41.1302 7.06 41.2602 7.02 41.3102 7.1C41.3002 7.17 41.2702 7.3 41.3202 7.38C41.6402 7.73 41.4402 8.11 41.5102 8.47C41.5502 8.62 41.5902 8.7 41.6402 8.78C41.6302 8.85 41.4702 9.03 41.4502 9.09C41.7102 9.43 41.8202 9.87 41.7502 10.28C42.0502 10.42 41.9102 10.81 41.9802 11.1C42.0302 11.18 42.0902 11.19 42.1502 11.21C42.2302 11.09 42.3202 10.97 42.3502 10.83C42.3902 10.28 42.4102 9.79 42.3102 9.28C42.2302 9.05 42.2002 8.83 42.3602 8.66C42.2402 8.63 42.2002 8.48 42.1502 8.4C41.9302 7.51 41.8402 6.51 41.5702 5.6C41.5702 5.6 41.6402 5.55 41.6602 5.48C41.5702 4.68 40.9602 3.93 40.6702 3.13C40.6202 2.99 40.3902 2.81 40.2802 2.66C40.2802 2.66 40.2802 2.59 40.3002 2.52C40.6102 2.56 40.8502 2.86 41.0102 3.09C41.3402 3.55 41.7102 4.06 41.8102 4.58C41.9802 5.04 42.2402 5.52 42.3402 5.97C42.4102 6.27 42.6202 6.46 42.7702 6.71C42.8502 6.94 42.8102 7.14 42.8302 7.36C42.9202 7.88 43.0702 8.37 43.1702 8.89C43.2902 9.27 43.3502 9.7 43.2202 10.02C43.0502 10.61 43.4402 11.26 43.6002 11.79C43.6902 12.02 43.5802 12.28 43.4802 12.47C43.4702 12.54 43.5802 12.63 43.5602 12.7C43.4502 12.96 43.5402 13.19 43.4902 13.46C43.4202 13.51 43.5802 13.69 43.4902 13.81C43.4202 13.87 43.3602 13.85 43.2802 13.91C43.1802 14.1 43.2702 14.33 43.2302 14.53C43.0302 14.91 43.1302 15.42 42.7602 15.69C42.6202 15.73 42.6102 15.8 42.5402 15.85C42.6002 15.86 42.6502 15.94 42.7002 16.03C42.6302 16.08 42.5602 16.07 42.4902 16.12C42.4702 16.25 42.7302 16.42 42.7802 16.5C42.6802 17.04 42.2802 17.51 42.2902 18.15C42.2602 18.28 42.2302 18.49 42.2002 18.62C42.0802 18.94 41.8402 19.17 41.7202 19.5C41.7002 19.63 41.4402 19.65 41.4102 19.78C41.2502 19.95 41.2602 20.24 41.1502 20.5C41.0602 20.62 40.8802 20.58 40.7302 20.69C40.5602 20.93 40.5802 21.15 40.4702 21.4C40.2802 21.71 40.0602 22.05 39.8802 22.36C39.6702 22.81 39.3202 23.23 38.9402 23.57C38.8802 23.56 38.7402 23.6 38.6702 23.65C38.4702 24.03 38.2502 24.31 37.8302 24.5C37.7702 24.49 37.6802 24.78 37.6002 24.83C37.3102 25.04 37.1502 25.29 36.8002 25.49C36.6702 25.53 36.6002 25.58 36.4502 25.34C35.9902 26.15 35.3802 26.78 34.7202 27.34C34.3702 27.54 34.0202 27.52 33.7902 27.75C33.0302 28.49 31.8302 29.28 31.7002 29.39C31.6402 29.38 31.4102 29.72 31.4102 29.72C31.1702 29.74 31.3102 29.76 31.0802 29.72C31.0802 29.72 31.0702 30.1 30.7602 30.16C30.1102 30.29 29.9402 31.04 29.8902 31.35C29.8602 31.51 29.7602 31.4 29.6802 31.46C29.6102 31.52 29.6602 31.62 29.5802 31.68C29.3002 31.85 29.0502 32.2 28.8202 32.47C28.7502 32.53 28.7002 32.44 28.6202 32.5C28.5502 32.56 28.2002 32.99 28.0802 33.37C27.7802 34.03 27.4602 34.62 27.0502 35.08C26.9502 35.19 27.2802 35.63 27.2602 35.78C27.1702 35.99 26.9802 36.02 26.8902 36.23C26.8102 36.74 26.7802 37.32 26.6902 37.87C26.5402 38.4 26.7302 38.78 26.8002 39.26C26.8802 39.66 26.7802 40.18 26.8002 40.57C26.8302 40.88 27.0402 41.23 27.0102 41.53C27.0202 42 26.9102 41.94 27.0102 42.33C27.0002 42.56 26.9202 42.79 26.9702 42.94C26.9502 43.25 26.9002 43.44 26.8902 43.74C26.8202 43.81 26.6902 43.96 26.6902 44.03C26.6402 44.8 26.1402 45.47 25.6202 45.98C25.2902 46.19 25.0102 46.51 24.6402 46.48C24.4502 46.47 23.8302 46.86 23.6202 46.91C23.0702 47.06 22.6302 47.07 22.1002 46.99C21.5202 46.83 21.0502 46.69 20.6502 46.09C20.4102 45.82 20.0002 45.92 19.8502 45.51C19.8002 45.35 19.4702 45.26 19.4102 45.18C19.1002 44.91 18.9402 44.57 18.7102 44.23C18.5602 43.82 18.6702 43.54 18.4802 43.15C18.2902 42.91 18.2102 42.74 18.0202 42.49C17.7702 42.17 18.0802 41.71 17.8902 41.39C17.7602 41.3 17.6302 41.14 17.5702 40.98C17.4502 40.67 17.4802 40.21 17.2902 39.88C17.1902 39.48 17.2502 38.03 17.3302 37.64C17.3402 37.56 17.1202 37.45 17.1302 37.37C17.1602 36.81 17.3602 36.26 17.3102 35.68C17.3702 35.37 17.3402 35.12 17.6202 34.85C17.6202 34.85 17.4902 34.74 17.5002 34.66C17.6602 34.21 17.6602 33.86 17.7502 33.39C17.7602 33.31 17.9302 33.26 17.9402 33.19C17.8502 32.85 17.8402 32.15 17.9002 31.84C17.9302 31.68 18.3302 31.45 18.4302 31.31C18.4402 31.23 18.3702 31.03 18.5202 30.76C18.5602 30.69 18.6602 30.71 18.7402 30.65C18.7502 30.57 18.7002 30.48 18.7202 30.4C18.7602 30.17 19.1502 30 19.1802 29.84C19.3402 29.31 19.6002 29.09 19.8802 28.66C19.9802 28.47 20.0202 28.27 20.1802 28.09C20.2502 28.04 20.2902 28.09 20.3002 28.02C20.3102 27.95 20.2802 27.8 20.2902 27.74C20.4502 27.56 20.6602 27.4 20.7002 27.2C20.8102 26.94 20.9002 26.76 21.0602 26.58C21.3502 26.36 21.6402 26.15 21.8202 25.84C21.9802 25.66 22.1602 25.7 22.3102 25.53C22.5402 25.3 22.6002 24.96 22.7702 24.72C23.1702 24.25 23.6002 23.92 24.0302 23.6C24.3902 23.33 24.8502 23.22 25.2002 23.02C25.5602 22.75 25.7802 22.24 26.1302 22.04C26.3402 21.88 26.6002 21.86 26.8202 21.7C27.0402 21.54 27.2202 21.23 27.5402 21.16C28.2602 20.97 27.7402 21.17 28.4202 20.9C28.8402 20.64 28.6702 20.57 29.0902 20.32C29.7902 19.91 30.1502 19.66 30.2102 19.67C30.2802 19.62 30.3502 19.56 30.3802 19.43C30.5502 19.19 31.4402 18.56 31.5702 18.52C31.7002 18.48 31.8602 18.65 32.0102 18.48C32.0902 18.36 31.9302 18.25 32.0102 18.13C32.2402 17.9 32.4602 17.59 32.6802 17.43C32.7502 17.38 32.9302 17.48 33.0602 17.44C33.1302 17.39 33.1602 17.25 33.2302 17.2C33.3202 17.08 33.1602 16.9 33.2402 16.78C33.3402 16.59 33.4402 16.4 33.5702 16.36C33.7802 16.27 34.0602 16.12 34.0302 15.97C34.0802 15.7 34.1902 15.44 34.4702 15.29C34.4802 15.22 34.5002 15.15 34.5102 15.09C34.6702 14.91 34.8202 14.81 34.9802 14.63C35.1502 14.39 35.0802 14.09 35.1802 13.9C35.5002 13.55 35.8102 13.27 35.8902 12.79C35.8702 12.57 35.7302 12.26 35.8302 12.07C35.9102 11.95 36.1802 11.87 36.2102 11.74C36.2602 11.47 36.1202 11.16 36.1102 10.88C36.1502 10.68 36.3702 10.51 36.3402 10.3C36.3202 9.73 36.3502 9.18 36.2702 8.6C36.4602 8.57 36.4902 8.44 36.5102 8.3C36.4602 7.87 36.2102 7.47 36.1002 7.02C36.0902 6.74 36.3202 6.51 36.3102 6.23C36.2802 6.01 36.0802 5.76 35.8502 5.57C35.6402 5.31 35.7802 4.92 35.7002 4.63C35.6402 4.27 35.3702 3.99 35.3202 3.56C35.3002 3.34 35.0402 3.36 34.9502 3.13C34.8802 2.83 34.8002 2.54 34.8002 2.18C34.7602 2.03 34.5702 2.06 34.4602 1.97C34.2102 1.56 34.3002 0.74 33.7602 0.55C33.8102 0.28 33.5602 0.22 33.4802 0C33.8002 0 34.1002 0.13 34.2802 0.53C34.3302 0.61 34.5102 0.65 34.5702 0.67C34.7302 0.84 34.7202 1.26 34.8902 1.37C35.1102 1.56 35.4402 1.49 35.5302 1.72C35.6502 2.1 35.9402 2.3 36.0702 2.61C36.0602 2.68 36.0902 2.83 36.1402 2.91C36.3602 3.1 36.3902 3.31 36.5402 3.49C36.9102 3.92 37.2802 4.36 37.1102 4.95C37.0002 5.21 37.3302 5.14 37.4302 5.3C37.6802 5.71 37.5802 6.25 37.9002 6.6C37.8402 7.29 38.1702 7.92 38.3802 8.53C38.0202 9.08 38.2202 10.05 38.5002 10.61C38.5002 10.61 38.7002 10.58 38.7102 10.52C38.7702 10.19 39.3802 10.07 39.2802 9.91C39.1602 9.53 38.9702 8.74 38.9702 8.39C39.0102 7.83 39.0302 7.35 38.9402 6.77C38.8902 6.69 38.8402 6.61 38.7902 6.53C38.7202 6.23 38.6402 5.93 38.7002 5.6C38.6602 5.45 38.5502 5.36 38.5102 5.21C38.5202 5.14 38.5502 5.01 38.5602 4.94C38.7002 4.9 38.8702 5.01 38.9902 5.04C39.1002 5.13 39.0002 5.32 39.0502 5.4C39.2502 5.72 39.5402 5.86 39.6002 6.22C39.5902 6.29 39.5602 6.42 39.5502 6.49C39.6002 6.92 39.8602 7.26 39.9202 7.62C39.9502 7.83 39.7602 8.14 39.8502 8.38C40.1302 8.93 40.1402 9.57 40.1002 10.19C40.0502 10.46 40.3902 10.68 40.3002 10.86C40.2002 11.05 40.3302 11.08 40.2302 11.27C40.2202 11.34 40.0802 11.38 40.0702 11.45C40.2502 11.84 39.9802 12.43 39.9102 12.77C39.9002 12.84 40.1202 12.91 40.1702 12.66C40.2002 12.51 40.4502 12.51 40.5902 12.47C40.7402 12.36 40.8502 12.1 40.8402 11.82L40.9002 11.8ZM42.2202 13.15C42.2302 12.81 42.3902 12.56 42.3302 12.19C42.2102 11.81 41.9302 12.19 41.7302 12.21C41.8402 12.66 41.6602 12.96 41.5202 13.36C41.4402 13.48 41.3702 13.82 41.5702 13.79C41.8802 13.86 42.2102 13.56 42.2202 13.15ZM41.7002 15C41.7802 14.89 41.7402 14.67 41.6302 14.58C41.4602 14.47 41.2402 14.64 41.1402 14.82C41.0402 15.01 41.1202 15.31 41.3802 15.29C41.4402 15.3 41.6202 15.12 41.7102 15H41.7002Z" fill="white"/>
<path d="M38.0801 3.47999C38.4101 3.72999 38.5401 4.13999 38.8001 4.47999L38.7701 4.61999C38.3201 5.00999 37.9201 4.35999 37.8001 3.97999C37.6201 3.58999 37.4301 3.19999 37.1001 2.90999C37.1101 2.83999 37.1301 2.77999 37.1401 2.70999C36.9801 2.52999 36.7701 2.27999 36.9801 2.17999C37.0701 2.05999 37.2201 2.29999 37.3901 2.40999C37.6501 2.74999 37.7001 3.17999 38.0901 3.47999H38.0801Z" fill="white"/>
<path d="M39.9401 1.75006C39.9401 1.82006 39.8301 1.94006 39.8201 2.00006C39.6101 1.80006 39.3901 1.60006 39.2101 1.27006C39.1501 1.25006 39.0301 1.22006 38.9801 1.14006C38.9201 1.12006 38.9301 1.06006 38.9501 0.99006C39.1501 0.97006 39.3001 1.15006 39.4701 1.27006C39.5301 1.29006 39.6101 1.24006 39.6701 1.25006C39.8401 1.36006 39.9301 1.53006 39.9501 1.75006H39.9401Z" fill="white"/>
<path d="M12.1601 14.1699C12.2201 14.2199 12.3101 14.2999 12.3501 14.3599C12.4501 14.4299 12.5501 14.4299 12.6601 14.3899C12.7601 14.3899 12.8501 14.6599 12.9601 14.6699C13.1101 14.7399 13.2001 14.9999 13.3501 15.1299C13.4501 15.1899 13.5501 15.2899 13.6501 15.3499C13.7901 15.5299 13.8801 15.7099 14.0301 15.8299C14.1201 15.9499 14.2801 15.9099 14.3901 15.9099C14.5901 15.9799 14.6701 16.2699 14.8101 16.4499C14.8601 16.4499 14.9501 16.6299 14.9501 16.6899C15.0501 16.7499 15.1401 16.8699 15.2901 16.9399C15.3301 16.9999 15.3301 17.1099 15.3701 17.1699C15.7401 17.7699 16.2301 18.1499 16.5401 18.7899C16.5401 18.7899 16.5801 18.9099 16.5801 18.9599C16.9601 19.3299 17.1301 19.8599 17.4601 20.2799C17.5501 20.4599 17.6301 20.7499 17.7201 20.9799C17.8201 21.0999 17.9101 21.1699 18.0101 21.2899C18.1501 21.5299 18.2801 21.8199 18.3101 22.1099C18.3101 22.2199 18.2301 22.5599 18.0301 22.3699C17.7901 22.1199 17.8101 21.7899 17.5701 21.5999C17.5701 21.5399 17.5101 21.3999 17.4601 21.3399C17.3601 21.2199 17.1901 21.2299 17.1501 21.0599C17.1601 20.8899 16.9701 20.7499 16.8801 20.6399C16.6401 20.2899 16.2801 20.1599 15.9901 19.8099C15.9401 19.8099 15.8801 19.8099 15.8301 19.8599C15.7801 19.9699 15.6201 20.1299 15.7601 20.3099C15.9601 20.4299 16.0601 20.6599 16.3101 20.7899C16.4601 20.9099 16.5001 21.2499 16.5901 21.5399C16.6901 21.6599 16.7901 21.7699 16.9401 21.8399C17.0901 21.9599 17.0301 22.1399 17.1701 22.3199C17.1701 22.3799 17.1101 22.4299 17.1101 22.4799C17.2001 22.6599 17.4101 22.6199 17.5501 22.7999C17.6601 22.6999 17.8101 22.7799 17.9001 22.9399C17.7301 23.0999 17.7801 23.2099 17.7101 23.3799C17.5401 23.6499 17.9301 23.9099 18.1801 24.0399C18.3401 24.0499 18.3101 24.3299 18.4601 24.4599C18.5501 24.6399 18.8101 24.6599 18.9401 24.8999C18.9801 25.0199 18.8801 25.0599 18.8201 25.1699C18.8101 25.3399 19.0101 25.4099 19.1101 25.4799C19.2101 25.5499 19.2501 25.6599 19.2901 25.7799C19.1301 25.8199 18.8301 25.6099 18.6701 25.5999C18.5701 25.5599 18.3901 25.3399 18.1901 25.2899C18.1201 25.2699 18.0701 25.4399 18.0001 25.4199C17.9101 25.3999 17.8101 25.3799 17.7101 25.3599C17.6001 25.3399 17.3401 25.0499 17.2301 25.0399C17.1001 25.0199 16.9401 25.2499 16.8201 25.2299C16.3601 25.1499 16.3401 25.1199 16.1901 25.0599C16.0201 24.9899 15.8501 24.9099 15.7001 24.8199C15.6001 24.7699 15.6301 24.6299 15.5301 24.5699C15.4401 24.5099 15.2301 24.5099 15.1401 24.4499C14.7701 24.2199 14.4201 23.7099 14.1001 23.5399C13.8901 23.4299 13.7201 23.3199 13.4801 23.2099C13.3701 23.1399 13.2801 22.9799 13.1401 22.9299C12.7001 22.7799 12.3501 22.5099 11.8601 22.3699C10.9201 22.0999 10.1401 22.6399 9.37013 23.0399C9.33013 23.0399 9.25013 23.0399 9.21013 23.0599C9.03013 23.2099 8.83013 23.2899 8.65013 23.4099C8.41013 23.5999 8.08013 23.6499 7.82013 23.7999C7.74013 23.8499 7.73013 23.9999 7.65013 24.0499C7.53013 24.1199 7.30013 24.1399 7.18013 24.2099C7.07013 24.2799 7.06013 24.4099 6.95013 24.4999C6.73013 24.6799 6.52013 24.8199 6.22013 24.9599C6.05013 25.0499 4.64013 25.2899 4.41013 25.2899C4.05013 25.2899 3.79013 25.5899 3.25013 25.5899C2.43013 25.5899 1.60013 25.5699 0.920127 25.0599C0.780127 24.9399 0.750127 24.5899 0.650127 24.5299C0.350127 24.3399 0.380127 23.9399 0.300127 23.6499C0.200127 23.5899 0.000127067 23.5699 0.0101271 23.3999C0.120127 22.5599 0.540127 21.7999 1.05013 21.2199C1.17013 20.9999 1.43013 20.9099 1.46013 20.6299C1.46013 20.6299 1.92013 19.9899 2.20013 19.7299C2.26013 19.6199 2.17013 19.4399 2.23013 19.3399C2.65013 18.5199 3.41013 17.9599 4.04013 17.2199C4.21013 17.0599 4.32013 16.8499 4.59013 16.8099C4.70013 16.8099 4.80013 16.8299 4.86013 16.7199C4.98013 16.4499 5.20013 16.2999 5.36013 16.1899C5.96013 15.7799 6.46013 15.1699 7.14013 15.0599C7.25013 15.0099 7.31013 14.8999 7.41013 14.8499C7.52013 14.7499 7.72013 14.8699 7.83013 14.8299C8.34013 14.5999 8.80013 14.1099 9.32013 14.0399C9.43013 13.9899 9.49013 13.8799 9.54013 13.8899C10.0001 13.9299 10.5501 13.5199 10.9801 13.9499C11.3701 13.8699 11.9601 13.9499 12.2001 14.1599L12.1601 14.1699ZM15.7001 19.1199C15.7001 19.0599 15.7001 19.0099 15.7001 18.9499C15.5001 18.8299 15.4101 18.4799 15.1501 18.4099C15.1001 18.4099 14.9901 18.4599 14.9901 18.5199C14.9801 18.8599 15.1201 19.0899 15.2601 19.3799C15.3201 19.1599 15.4701 19.1699 15.5701 19.3399C15.6201 19.2899 15.6801 19.1799 15.6801 19.1199H15.7001Z" fill="white"/>
<path d="M65.0301 34.94L62.7001 37.37L56.2201 31.05C55.3701 32.56 54.3501 33.84 53.1701 34.9C51.9901 35.95 50.8101 36.81 49.6401 37.47L47.3701 34.88C48.6501 34.24 49.7401 33.5 50.6401 32.65C51.5401 31.8 52.2801 30.9 52.8601 29.97C53.4301 29.03 53.8501 28.08 54.1201 27.1C54.3801 26.12 54.5201 25.16 54.5201 24.23V19.76H58.1001V23.59C58.1001 24.34 58.0501 25.05 57.9601 25.73C57.8601 26.41 57.7401 27.07 57.5901 27.71L65.0301 34.96V34.94ZM72.4401 45.92H69.0501V28.8H61.9901V25.54H69.0501V16.85H72.4401V45.91V45.92Z" fill="white"/>
<path d="M103.08 33.22H90.9802V34.82H96.9802V42.32H85.3902V43.76H97.7502V47.02H81.8802V39.23H93.4402V37.95H81.7202V34.82H87.5602V33.22H75.7102V30.03H103.08V33.22ZM96.6902 22.94C96.6902 23.86 96.4902 24.69 96.1002 25.45C95.7102 26.21 95.1802 26.86 94.5202 27.41C93.8402 27.94 93.0302 28.36 92.1102 28.66C91.1802 28.96 90.1802 29.11 89.0902 29.11C88.0702 29.11 87.1102 28.97 86.2002 28.69C85.2902 28.41 84.4902 28.01 83.7902 27.48C83.1102 26.95 82.5702 26.3 82.1802 25.55C81.7902 24.79 81.5902 23.94 81.5902 22.98C81.5902 22.02 81.7802 21.15 82.1602 20.38C82.5402 19.6 83.0802 18.94 83.7602 18.38C84.4202 17.83 85.2102 17.4 86.1202 17.1C87.0302 16.8 88.0202 16.65 89.0902 16.65C90.1602 16.65 91.1202 16.8 92.0402 17.1C92.9702 17.4 93.7702 17.82 94.4502 18.38C95.1302 18.91 95.6702 19.57 96.0802 20.34C96.4802 21.12 96.6902 21.99 96.6902 22.94ZM93.1802 22.9C93.1802 21.9 92.7802 21.11 91.9702 20.54C91.1602 19.96 90.2002 19.68 89.1002 19.68C88.0002 19.68 86.9902 19.96 86.2102 20.53C85.4302 21.09 85.0502 21.89 85.0502 22.91C85.0502 23.93 85.4402 24.66 86.2102 25.21C86.9902 25.76 87.9502 26.04 89.1002 26.04C90.2502 26.04 91.1602 25.79 91.9702 25.28C92.7802 24.77 93.1802 23.98 93.1802 22.92V22.9Z" fill="white"/>
<path d="M131.83 35.31H104.5V32.09H131.83V35.31ZM125.89 47.01H122.47V40.35H110.24V37.09H125.89V47.01ZM125.83 30.42H110.37V17.84H125.63V21.06H113.75V22.43H125.25V25.69H113.75V27.19H125.82V30.41L125.83 30.42Z" fill="white"/>
<path d="M147.16 31.71H134.16V18.43H137.54V22.26H143.74V18.43H147.16V31.71ZM143.74 28.49V25.49H137.54V28.49H143.74ZM156.77 47.01H141.09V38.99H152.49V37.33H140.93V34.1H156V42.12H144.67V43.78H156.77V47V47.01ZM157.03 33.18H153.68V30.08H148.19V26.88H153.68V24.58H148.19V21.35H153.68V16.85H157.03V33.17V33.18Z" fill="white"/>
<path d="M177.86 35.04L175.53 37.47L169.08 31.12C168.25 32.65 167.24 33.95 166.06 35C164.88 36.05 163.68 36.91 162.47 37.57L160.2 34.98C161.5 34.28 162.6 33.5 163.51 32.65C164.41 31.8 165.15 30.91 165.73 30C166.28 29.06 166.69 28.12 166.96 27.16C167.23 26.2 167.36 25.25 167.36 24.32V19.75H170.94V23.68C170.94 24.43 170.89 25.13 170.8 25.8C170.7 26.47 170.58 27.11 170.43 27.73L177.87 35.04H177.86ZM184.85 45.92H181.43V16.86H184.85V45.92Z" fill="white"/>
</g>
<defs>
<clipPath id="clip0_69_313">
<rect width="184.85" height="47.06" fill="white"/>
</clipPath>
</defs>
</svg>
